# xmcd
#
# Track frame offsets:
# 150
# 12913
# 26038
# 39108
# 52472
# 62543
# 74324
# 85053
# 107958
# 120760
# 132549
# 148680
# 161392
# 173496
# 187867
# 196382
# 209827
# 223328
# 237072
# 251030
# 264766
# 275983
# 289204
# 300419
# 314279
# 327093
#
# Disc length: 4511 seconds
#
# Revision: 2
# Processed by: cddbd v1.4PL0 Copyright (c) Steve Scherf et al.
# Submitted via: Axialis_AX_CDPlayer 2.6
#
DISCID=80119d1a
DTITLE=Elmore James - King Of The Slide Guitar (Vol 1)
DYEAR=1900
DGENRE=
TTITLE0=The Sky Is Crying
TTITLE1=Baby Please Set A Date
TTITLE2=Held My Baby Last Night
TTITLE3=Dust My Broom
TTITLE4=Bobby's Rock
TTITLE5=Rollin' And Tumblin'
TTITLE6=Done Somebody Wrong
TTITLE7=Something Inside Of Me
TTITLE8=I'm Worried
TTITLE9=Fine Little Mama
TTITLE10=I Need You
TTITLE11=Early One Morning
TTITLE12=I Can't Stop Loving You
TTITLE13=Strange Angel
TTITLE14=She Done Moved
TTITLE15=My Baby's Gone
TTITLE16=Stranger Blues
TTITLE17=Anna Lee
TTITLE18=(My) Bleeding Heart
TTITLE19=Standing At The Crossroads
TTITLE20=One Way Out
TTITLE21=My Kind Of Woman
TTITLE22=Person To Person
TTITLE23=Find My Kind Of Woman (alternate)
TTITLE24=Find My Kind Of Woman
TTITLE25=So Unkind
EXTD=
EXTT0=
EXTT1=
EXTT2=
EXTT3=
EXTT4=
EXTT5=
EXTT6=
EXTT7=
EXTT8=
EXTT9=
EXTT10=
EXTT11=
EXTT12=
EXTT13=
EXTT14=
EXTT15=
EXTT16=
EXTT17=
EXTT18=
EXTT19=
EXTT20=
EXTT21=
EXTT22=
EXTT23=
EXTT24=
EXTT25=
PLAYORDER=
